# xmcd CD database file
#
# Track frame offsets:
#	6072
#	22275
#	40797
#	55620
#	75202
#	91920
#
# Disc length: 1518 seconds
#
# Revision: 0
# Processed by: cddbd v1.5.1PL0 Copyright (c) Steve Scherf et al.
# Submitted via: CDex 1.51
#
DISCID=3f059e06
DTITLE=hare-brained unity-hikari - -hikari-
DYEAR=2005
DGENRE=Pop
TTITLE0=ベガ
TTITLE1=四月ノ空
TTITLE2=lift
TTITLE3=波
TTITLE4=ハルカ
TTITLE5=across the view
EXTD=YEAR: 2005
EXTT0=
EXTT1=
EXTT2=
EXTT3=
EXTT4=
EXTT5=
PLAYORDER=
